{"title":"My Little Pony:Friendship is Magic - Season 2 - Episode 1 - The ","uid":6698954,"size":295601503,"categoryP":"video","categoryS":"hd___tv_shows","magnet":"?xt=urn:btih:0b71933f9590ec71af4a5ac6833afd16cfac1181&amp;dn=My+Little+Pony%3AFriendship+is+Magic+-+Season+2+-+Episode+1+-+The+&amp;tr=udp%3A%2F%2Ftracker.openbittorrent.com%3A80&amp;tr=udp%3A%2F%2Fopen.demonii.com%3A1337&amp;tr=udp%3A%2F%2Ftracker.coppersurfer.tk%3A6969&amp;tr=udp%3A%2F%2Fexodus.desync.com%3A6969","seeders":0,"leechers":1,"uploader":"TorrentGuy96","files":-1,"time":1316887155,"description":"My Little Pony:Friendship is Magic - S2-E01 - The Return of Harmony (Part 1) (720p)\n\n-----------------------------------------------------------------------------\n\nGeneral\nFormat                           : MPEG-4\nFormat profile                   : Base Media\nCodec ID                         : isom\nFile size                        : 282 MiB\nDuration                         : 21mn 55s\nOverall bit rate                 : 1 798 Kbps\nWriting application              : Lavf52.108.0\n\nVideo\nID                               : 1\nFormat                           : AVC\nFormat/Info                      : Advanced Video Codec\nFormat profile                   : &lt;a class=&quot;__cf_email__&quot; href=&quot;/cdn-cgi/l/email-protection&quot; data-cfemail=&quot;a1e9c8c6c9e1ed928f90&quot;&gt;[email&amp;#160;protected]&lt;/a&gt;&lt;script data-cfhash='f9e31' type=&quot;text/javascript&quot;&gt;\n/* &lt;![CDATA[ */!function(){try{var t=&quot;currentScript&quot;in document?document.currentScript:function(){for(var t=document.getElementsByTagName(&quot;script&quot;),e=t.length;e--;)if(t[e].getAttribute(&quot;data-cfhash&quot;))return t[e]}();if(t&amp;&amp;t.previousSibling){var e,r,n,i,c=t.previousSibling,a=c.getAttribute(&quot;data-cfemail&quot;);if(a){for(e=&quot;&quot;,r=parseInt(a.substr(0,2),16),n=2;a.length-n;n+=2)i=parseInt(a.substr(n,2),16)^r,e+=String.fromCharCode(i);e=document.createTextNode(e),c.parentNode.replaceChild(e,c)}t.parentNode.removeChild(t);}}catch(u){}}()/* ]]&gt; */&lt;/script&gt;\nFormat settings, CABAC           : Yes\nFormat settings, ReFrames        : 1 frame\nFormat settings, GOP             : M=1, N=30\nCodec ID                         : avc1\nCodec ID/Info                    : Advanced Video Coding\nDuration                         : 21mn 55s\nBit rate                         : 1 639 Kbps\nWidth                            : 1 280 pixels\nHeight                           : 720 pixels\nDisplay aspect ratio             : 16:9\nFrame rate mode                  : Constant\nFrame rate                       : 30.000 fps\nColor space                      : YUV\nChroma subsampling               : 4:2:0\nBit depth                        : 8 bits\nScan type                        : Progressive\nBits/(Pixel*Frame)               : 0.059\nStream size                      : 257 MiB (91%)\n\nAudio\nID                               : 2\nFormat                           : AAC\nFormat/Info                      : Advanced Audio Codec\nFormat profile                   : LC\nCodec ID                         : 40\nDuration                         : 21mn 55s\nBit rate mode                    : Constant\nBit rate                         : 152 Kbps\nChannel(s)                       : 2 channels\nChannel positions                : Front: L R\nSampling rate                    : 44.1 KHz\nCompression mode                 : Lossy\nStream size                      : 23.8 MiB (8%)\n\n-----------------------------------------------------------------------------\n\nI will be uploading ALL MLP:FiM Season 2 episodes here as soon as possible after they are aired.\n\nHave fun everypony, stay tuned for more MLP:FiM Season 2 episodes and be sure to seed :D\n\nTorrentGuy96\n\n","torrent":{"xt":"urn:btih:0b71933f9590ec71af4a5ac6833afd16cfac1181","amp;dn":"My+Little+Pony%3AFriendship+is+Magic+-+Season+2+-+Episode+1+-+The+","amp;tr":["udp%3A%2F%2Ftracker.openbittorrent.com%3A80","udp%3A%2F%2Fopen.demonii.com%3A1337","udp%3A%2F%2Ftracker.coppersurfer.tk%3A6969","udp%3A%2F%2Fexodus.desync.com%3A6969"],"infoHash":"0b71933f9590ec71af4a5ac6833afd16cfac1181","infoHashBuffer":{"type":"Buffer","data":[11,113,147,63,149,144,236,113,175,74,90,198,131,58,253,22,207,172,17,129]},"announce":[],"urlList":[]}}